<svg id="Layer_1" data-name="Layer 1" xmlns="http://www.w3.org/2000/svg" viewBox="0 0 1020.48 117.01"><defs><style>.cls-1{fill:#e3ac7b;}.cls-2{fill:#ece8e6;}.cls-3{font-size:30px;}.cls-3,.cls-6{font-family:Raleway-Regular, Raleway;}.cls-4{letter-spacing:0em;}.cls-5{letter-spacing:-0.03em;}.cls-6{font-size:18px;}.cls-7{letter-spacing:-0.07em;}.cls-8{letter-spacing:-0.03em;}.cls-9{letter-spacing:-0.01em;}.cls-10{letter-spacing:-0.04em;}.cls-11{letter-spacing:0em;}.cls-12{letter-spacing:-0.03em;}.cls-13{letter-spacing:-0.05em;}.cls-14{letter-spacing:-0.08em;}.cls-15{letter-spacing:-0.03em;}.cls-16{letter-spacing:-0.02em;}.cls-17{letter-spacing:-0.04em;}.cls-18{letter-spacing:-0.03em;}</style></defs><title>progressbar2</title><rect class="cls-1" x="74" y="21" width="418" height="4"/><rect class="cls-1" x="492" y="21" width="418" height="4"/><circle class="cls-1" cx="74.5" cy="22.5" r="22.5"/><circle class="cls-1" cx="492.5" cy="22.5" r="22.5"/><circle class="cls-2" cx="910.5" cy="22.5" r="22.5"/><text class="cls-3" transform="translate(31 85)"><tspan class="cls-4">S</tspan><tspan x="18.06" y="0">TE</tspan><tspan class="cls-5" x="54.63" y="0">P</tspan><tspan x="72.48" y="0" xml:space="preserve"> 1</tspan></text><text class="cls-3" transform="translate(450 85)"><tspan class="cls-4">S</tspan><tspan x="18.06" y="0">TE</tspan><tspan class="cls-5" x="54.63" y="0">P</tspan><tspan x="72.48" y="0" xml:space="preserve"> 2</tspan></text><text class="cls-3" transform="translate(868 85)"><tspan class="cls-4">S</tspan><tspan x="18.06" y="0">TE</tspan><tspan class="cls-5" x="54.63" y="0">P</tspan><tspan x="72.48" y="0" xml:space="preserve"> 3</tspan></text><text class="cls-6" transform="translate(350 113)">CHOOSE M<tspan class="cls-7" x="94.93" y="0">A</tspan><tspan x="105.84" y="0">TERIALS</tspan><tspan class="cls-8" x="177.59" y="0"> </tspan><tspan x="181.62" y="0">AND </tspan><tspan class="cls-9" x="225.14" y="0">C</tspan><tspan x="237.36" y="0">O</tspan><tspan class="cls-10" x="250.88" y="0">L</tspan><tspan class="cls-11" x="260.57" y="0">ORS</tspan></text><text class="cls-6" transform="translate(0 113)">BUILD<tspan class="cls-12" x="53.41" y="0"> </tspan><tspan class="cls-13" x="57.38" y="0">Y</tspan><tspan x="68.24" y="0">OUR SO</tspan><tspan class="cls-14" x="136.13" y="0">F</tspan><tspan class="cls-8" x="145.33" y="0">A</tspan></text><text class="cls-6" transform="translate(807 113)">REVIE<tspan class="cls-15" x="50.36" y="0">W</tspan><tspan class="cls-8" x="68.58" y="0"> </tspan><tspan class="cls-11" x="72.61" y="0">AND CH</tspan><tspan class="cls-16" x="141.77" y="0">E</tspan><tspan x="152.46" y="0">C</tspan><tspan class="cls-17" x="164.81" y="0">K</tspan><tspan x="175.7" y="0">OU</tspan><tspan class="cls-18" x="202.8" y="0">T</tspan></text></svg>